<svg width="18" height="18" viewBox="0 0 18 18" fill="none" xmlns="http://www.w3.org/2000/svg">
<path fill-rule="evenodd" clip-rule="evenodd" d="M14.5 3C14.287 3 14.08 3.026 13.878 3.062C13.454 1.308 11.884 0 10 0C7.791 0 6 1.791 6 4C6 4.276 5.776 4.5 5.5 4.5C5.224 4.5 5 4.276 5 4C5 3.378 5.128 2.788 5.337 2.238C4.918 2.089 4.47 2 4 2C1.791 2 0 3.791 0 6C0 8.209 1.791 10 4 10H14.5C16.433 10 18 8.433 18 6.5C18 4.567 16.433 3 14.5 3Z" fill="#BEBDBD"/>
<path fill-rule="evenodd" clip-rule="evenodd" d="M8 13.8C8 14.464 7.553 15 7 15C6.447 15 6 14.464 6 13.8C6 13.137 7 11 7 11C7 11 8 13.137 8 13.8Z" fill="#BEBDBD"/>
<path fill-rule="evenodd" clip-rule="evenodd" d="M4 13.8C4 14.464 3.553 15 3 15C2.447 15 2 14.464 2 13.8C2 13.137 3 11 3 11C3 11 4 13.137 4 13.8Z" fill="#BEBDBD"/>
<path fill-rule="evenodd" clip-rule="evenodd" d="M16 13.8C16 14.464 15.553 15 15 15C14.447 15 14 14.464 14 13.8C14 13.137 15 11 15 11C15 11 16 13.137 16 13.8Z" fill="#BEBDBD"/>
<path fill-rule="evenodd" clip-rule="evenodd" d="M12 13.8C12 14.464 11.553 15 11 15C10.447 15 10 14.464 10 13.8C10 13.137 11 11 11 11C11 11 12 13.137 12 13.8Z" fill="#BEBDBD"/>
<path fill-rule="evenodd" clip-rule="evenodd" d="M10 16.8C10 17.464 9.553 18 9 18C8.447 18 8 17.464 8 16.8C8 16.137 9 14 9 14C9 14 10 16.137 10 16.8Z" fill="#BEBDBD"/>
<path fill-rule="evenodd" clip-rule="evenodd" d="M6 16.8C6 17.464 5.553 18 5 18C4.447 18 4 17.464 4 16.8C4 16.137 5 14 5 14C5 14 6 16.137 6 16.8Z" fill="#BEBDBD"/>
<path fill-rule="evenodd" clip-rule="evenodd" d="M14 16.8C14 17.464 13.553 18 13 18C12.447 18 12 17.464 12 16.8C12 16.137 13 14 13 14C13 14 14 16.137 14 16.8Z" fill="#BEBDBD"/>
</svg>
