<svg width="18" height="18" viewBox="0 0 18 18" fill="none" xmlns="http://www.w3.org/2000/svg">
<path d="M10 13C10 13.553 9.553 14 9 14C8.447 14 8 13.553 8 13C8 12.447 8.447 12 9 12C9.553 12 10 12.447 10 13Z" fill="#02AFBE"/>
<path d="M6 13C6 13.553 5.553 14 5 14C4.447 14 4 13.553 4 13C4 12.447 4.447 12 5 12C5.553 12 6 12.447 6 13Z" fill="#02AFBE"/>
<path d="M14 13C14 13.553 13.553 14 13 14C12.447 14 12 13.553 12 13C12 12.447 12.447 12 13 12C13.553 12 14 12.447 14 13Z" fill="#02AFBE"/>
<path fill-rule="evenodd" clip-rule="evenodd" d="M14.5 4C14.287 4 14.08 4.026 13.878 4.062C13.454 2.308 11.884 1 10 1C7.791 1 6 2.791 6 5C6 5.276 5.776 5.5 5.5 5.5C5.224 5.5 5 5.276 5 5C5 4.378 5.128 3.788 5.337 3.238C4.918 3.089 4.47 3 4 3C1.791 3 0 4.791 0 7C0 9.209 1.791 11 4 11H14.5C16.433 11 18 9.434 18 7.5C18 5.566 16.433 4 14.5 4Z" fill="#BEBDBD"/>
<path d="M8 16C8 16.553 7.553 17 7 17C6.447 17 6 16.553 6 16C6 15.447 6.447 15 7 15C7.553 15 8 15.447 8 16Z" fill="#02AFBE"/>
<path d="M12 16C12 16.553 11.553 17 11 17C10.447 17 10 16.553 10 16C10 15.447 10.447 15 11 15C11.553 15 12 15.447 12 16Z" fill="#02AFBE"/>
</svg>
