<svg width="18" height="18" viewBox="0 0 18 18" fill="none" xmlns="http://www.w3.org/2000/svg">
<path fill-rule="evenodd" clip-rule="evenodd" d="M15 11C14.982 11 14.967 11.005 14.95 11.005C14.708 9.309 13.263 8 11.5 8C9.567 8 8 9.567 8 11.5C8 11.776 7.776 12 7.5 12C7.224 12 7 11.776 7 11.5C7 11.005 7.1 10.538 7.248 10.092C7.007 10.036 6.759 10 6.5 10C4.567 10 3 11.567 3 13.5C3 15.433 4.567 17 6.5 17H15C16.656 17 18 15.657 18 14C18 12.343 16.656 11 15 11Z" fill="#DDDCDC"/>
<path fill-rule="evenodd" clip-rule="evenodd" d="M7.771 9C8.58 7.798 9.946 7 11.5 7C12.243 7 12.949 7.189 13.574 7.52C13.839 7.072 14 6.557 14 6C14 4.343 12.658 3 11 3C10.727 3 10.467 3.048 10.215 3.117C9.677 1.873 8.441 1 7 1C5.559 1 4.324 1.873 3.787 3.118C3.535 3.048 3.273 3 3 3C1.342 3 0 4.342 0 6C0 7.656 1.343 9 3 9H7.771Z" fill="#DDDCDC"/>
</svg>
