<svg width="18" height="18" viewBox="0 0 18 18" fill="none" xmlns="http://www.w3.org/2000/svg">
<g clip-path="url(#clip0_2_60)">
<path fill-rule="evenodd" clip-rule="evenodd" d="M14.5 11C14.287 11 14.08 11.026 13.878 11.062C13.454 9.308 11.884 8 10 8C7.791 8 6 9.791 6 12C6 12.276 5.776 12.5 5.5 12.5C5.224 12.5 5 12.276 5 12C5 11.378 5.128 10.788 5.337 10.238C4.918 10.089 4.47 10 4 10C1.791 10 0 11.791 0 14C0 16.209 1.791 18 4 18H14.5C16.433 18 18 16.433 18 14.5C18 12.567 16.433 11 14.5 11Z" fill="#DDDCDC"/>
<path d="M3.879 8.38201L5.818 8.60801C5.975 8.63001 6.102 8.68201 6.219 8.74001C6.666 8.22201 7.219 7.80101 7.841 7.50101C7.778 7.18101 7.755 6.85001 7.804 6.50901C8.038 4.87301 9.562 3.73201 11.2 3.96501C12.839 4.19901 13.977 5.72101 13.743 7.35801C13.691 7.71801 13.569 8.04901 13.406 8.35201C13.882 8.79901 14.274 9.33701 14.549 9.95201C14.705 9.90901 14.892 9.90101 15.109 9.93601L16.991 10.254C17.159 10.269 17.314 10.196 17.386 10.048C17.456 9.90001 17.42 9.72101 17.296 9.61201L15.884 8.37201C15.606 8.12801 15.473 7.85201 15.51 7.59501C15.547 7.33801 15.751 7.11001 16.087 6.95401L17.789 6.15901C17.938 6.08901 18.023 5.92801 17.997 5.76501C17.97 5.60201 17.844 5.47601 17.677 5.45701L15.737 5.23101C15.363 5.17801 15.09 5.01501 14.968 4.77101C14.854 4.54401 14.881 4.25601 15.045 3.95701L15.919 2.35401C15.998 2.21101 15.972 2.03301 15.857 1.91701C15.745 1.80201 15.567 1.77501 15.423 1.85201L13.769 2.73501C13.109 3.08901 12.484 2.80401 12.37 2.08501L12.082 0.283006C12.031 -0.036994 11.524 -0.109994 11.386 0.184006L10.607 1.83201C10.295 2.49101 9.617 2.59101 9.08 2.06601L7.74 0.754006C7.621 0.641006 7.442 0.617006 7.301 0.696006C7.158 0.776006 7.083 0.939006 7.119 1.09801L7.51 2.88201C7.583 3.21501 7.528 3.50001 7.357 3.68501C7.172 3.88501 6.864 3.96501 6.447 3.90501H6.444L4.565 3.58501C4.4 3.55701 4.241 3.64201 4.17 3.79201C4.1 3.94001 4.137 4.11901 4.26 4.22801L5.672 5.46801C5.949 5.71201 6.081 5.98801 6.045 6.24501C6.009 6.50101 5.804 6.72901 5.469 6.88501L3.767 7.68001C3.617 7.75001 3.532 7.91101 3.558 8.07301C3.585 8.23601 3.714 8.34801 3.879 8.38201Z" fill="#C88C32"/>
</g>
<defs>
<clipPath id="clip0_2_60">
<rect width="18" height="18" fill="white"/>
</clipPath>
</defs>
</svg>
