<svg width="18" height="18" viewBox="0 0 18 18" fill="none" xmlns="http://www.w3.org/2000/svg">
<g clip-path="url(#clip0_2_64)">
<path fill-rule="evenodd" clip-rule="evenodd" d="M8.5 16.799C8.5 17.463 8.053 17.999 7.5 17.999C6.947 17.999 6.5 17.463 6.5 16.799C6.5 16.137 7.5 13.999 7.5 13.999C7.5 13.999 8.5 16.137 8.5 16.799Z" fill="#BEBDBD"/>
<path fill-rule="evenodd" clip-rule="evenodd" d="M4.5 16.799C4.5 17.463 4.053 17.999 3.5 17.999C2.947 17.999 2.5 17.463 2.5 16.799C2.5 16.137 3.5 13.999 3.5 13.999C3.5 13.999 4.5 16.137 4.5 16.799Z" fill="#BEBDBD"/>
<path fill-rule="evenodd" clip-rule="evenodd" d="M12.5 16.799C12.5 17.463 12.053 17.999 11.5 17.999C10.947 17.999 10.5 17.463 10.5 16.799C10.5 16.137 11.5 13.999 11.5 13.999C11.5 13.999 12.5 16.137 12.5 16.799Z" fill="#BEBDBD"/>
<path fill-rule="evenodd" clip-rule="evenodd" d="M12 7C11.982 7 11.967 7.005 11.95 7.005C11.708 5.31 10.263 4 8.5 4C6.567 4 5 5.567 5 7.5C5 7.776 4.776 8 4.5 8C4.224 8 4 7.776 4 7.5C4 7.006 4.1 6.538 4.248 6.092C4.007 6.037 3.759 6 3.5 6C1.567 6 0 7.567 0 9.501C0 11.434 1.567 13.001 3.5 13.001H12C13.656 13.001 15 11.656 15 10.001C15 8.345 13.656 7 12 7Z" fill="#BEBDBD"/>
<path d="M16.512 5.37903L17.85 4.58003C17.967 4.50803 18.026 4.36803 17.991 4.23503C17.954 4.10403 17.839 4.01003 17.699 4.00903L16.077 3.98603C15.763 3.97303 15.523 3.86103 15.403 3.67003C15.29 3.49203 15.288 3.25203 15.398 2.99003L15.985 1.59203C16.039 1.46903 16.001 1.32203 15.896 1.23603C15.793 1.15103 15.645 1.14403 15.533 1.22003L14.24 2.09003C13.725 2.43803 13.184 2.25403 13.03 1.67003L12.639 0.20503C12.571 -0.0549701 12.146 -0.0719701 12.054 0.18203L11.549 1.60903C11.347 2.18003 10.797 2.31903 10.307 1.93103L9.09001 0.96003C8.98501 0.87603 8.83401 0.87203 8.72501 0.94803C8.61401 1.02503 8.56501 1.16803 8.60901 1.29603L9.08101 2.73703C9.11801 2.85003 9.12501 2.95203 9.12401 3.05103C9.71101 3.13503 10.261 3.33903 10.757 3.63303C11.182 3.36603 11.687 3.21903 12.225 3.24003C13.644 3.29803 14.746 4.49703 14.69 5.91303C14.676 6.25203 14.594 6.57103 14.462 6.86303C14.864 7.17903 15.209 7.56303 15.466 8.00803C15.598 7.94903 15.754 7.91303 15.955 7.92603L17.535 8.02903C17.676 8.02703 17.799 7.95503 17.845 7.82503C17.891 7.69703 17.846 7.55303 17.734 7.47503L16.463 6.56803C16.213 6.39003 16.08 6.17403 16.088 5.95703C16.098 5.74203 16.246 5.53803 16.512 5.37903Z" fill="#C88C32"/>
</g>
<defs>
<clipPath id="clip0_2_64">
<rect width="18" height="18" fill="white"/>
</clipPath>
</defs>
</svg>
