<svg width="18" height="18" viewBox="0 0 18 18" fill="none" xmlns="http://www.w3.org/2000/svg">
<path fill-rule="evenodd" clip-rule="evenodd" d="M14.5 4C14.287 4 14.08 4.026 13.878 4.062C13.454 2.308 11.884 1 10 1C7.791 1 6 2.791 6 5C6 5.276 5.776 5.5 5.5 5.5C5.224 5.5 5 5.276 5 5C5 4.378 5.128 3.788 5.337 3.238C4.918 3.089 4.47 3 4 3C1.791 3 0 4.791 0 7C0 9.209 1.791 11 4 11H14.5C16.433 11 18 9.433 18 7.5C18 5.567 16.433 4 14.5 4Z" fill="#BEBDBD"/>
<path fill-rule="evenodd" clip-rule="evenodd" d="M10 15.8C10 16.464 9.553 17 9 17C8.447 17 8 16.464 8 15.8C8 15.137 9 13 9 13C9 13 10 15.137 10 15.8Z" fill="#BEBDBD"/>
<path fill-rule="evenodd" clip-rule="evenodd" d="M6 15.8C6 16.464 5.553 17 5 17C4.447 17 4 16.464 4 15.8C4 15.137 5 13 5 13C5 13 6 15.137 6 15.8Z" fill="#BEBDBD"/>
<path fill-rule="evenodd" clip-rule="evenodd" d="M14 15.8C14 16.464 13.553 17 13 17C12.447 17 12 16.464 12 15.8C12 15.137 13 13 13 13C13 13 14 15.137 14 15.8Z" fill="#BEBDBD"/>
</svg>
