<svg width="18" height="18" viewBox="0 0 18 18" fill="none" xmlns="http://www.w3.org/2000/svg">
<path d="M3 14C3 14.553 2.553 15 2 15C1.447 15 1 14.553 1 14C1 13.447 1.447 13 2 13C2.553 13 3 13.447 3 14Z" fill="#02AFBE"/>
<path d="M15 14C15 14.553 15.447 15 16 15C16.553 15 17 14.553 17 14C17 13.447 16.553 13 16 13C15.447 13 15 13.447 15 14Z" fill="#02AFBE"/>
<path d="M10 17C10 17.553 9.553 18 9 18C8.447 18 8 17.553 8 17C8 16.447 8.447 16 9 16C9.553 16 10 16.447 10 17Z" fill="#02AFBE"/>
<path fill-rule="evenodd" clip-rule="evenodd" d="M14.5 3C14.287 3 14.08 3.026 13.878 3.062C13.454 1.308 11.884 0 10 0C7.791 0 6 1.791 6 4C6 4.276 5.776 4.5 5.5 4.5C5.224 4.5 5 4.276 5 4C5 3.378 5.128 2.788 5.337 2.238C4.918 2.089 4.47 2 4 2C1.791 2 0 3.791 0 6C0 8.209 1.791 10 4 10H14.5C16.433 10 18 8.434 18 6.5C18 4.566 16.433 3 14.5 3Z" fill="#BEBDBD"/>
<path d="M6.5 11V15.215C6.067 14.459 5.258 13.75 3.75 13.75C3.612 13.75 3.5 13.862 3.5 14C3.5 14.138 3.612 14.25 3.75 14.25C6.459 14.25 6.5 16.888 6.5 17V17.001C6.5 17.139 6.612 17.25 6.75 17.25C6.886 17.25 6.997 17.142 7 17.007V17.005V17.004V17.002V17V11H6.5Z" fill="#BEBDBD"/>
<path d="M14.25 13.75C12.742 13.75 11.933 14.459 11.5 15.215V11H11V17C11 17.138 11.112 17.25 11.25 17.25C11.388 17.25 11.5 17.138 11.5 17C11.5 16.888 11.531 14.25 14.25 14.25C14.388 14.25 14.5 14.138 14.5 14C14.5 13.862 14.388 13.75 14.25 13.75Z" fill="#BEBDBD"/>
<path d="M8.75 11V15C8.75 15.138 8.862 15.25 9 15.25C9.138 15.25 9.25 15.138 9.25 15V11H8.75Z" fill="#BEBDBD"/>
</svg>
