<svg width="18" height="18" viewBox="0 0 18 18" fill="none" xmlns="http://www.w3.org/2000/svg">
<path fill-rule="evenodd" clip-rule="evenodd" d="M14.5 3C14.287 3 14.08 3.026 13.877 3.062C13.453 1.308 11.883 0 10 0C7.791 0 6 1.791 6 4C6 4.276 5.775 4.5 5.5 4.5C5.223 4.5 5 4.276 5 4C5 3.378 5.127 2.788 5.336 2.238C4.918 2.089 4.469 2 4 2C1.791 2 0 3.791 0 6C0 8.209 1.791 10 4 10H14.5C16.432 10 18 8.434 18 6.5C18 4.566 16.432 3 14.5 3Z" fill="#BEBDBD"/>
<path fill-rule="evenodd" clip-rule="evenodd" d="M11.057 11H7.143L5 14H7.855L5 18L13 12.857H9.57L11.057 11Z" fill="#DBBD45"/>
</svg>
